<?xml version="1.0" encoding="UTF-8"?>
<svg enable-background="new 0 0 1512.494 1666.772" version="1.1" viewBox="0 0 1512.494 1666.772" xmlns="http://www.w3.org/2000/svg">
 <path d="m1313.5 1615.3" fill="none" stroke="#000" stroke-miterlimit="10" stroke-width=".9788"/>
 <rect transform="matrix(.0167 -.9999 .9999 .0167 -207.84 2149.9)" x="918.39" y="1125.6" width="141.4" height="110.01" fill="#B2B2B2" stroke="#000" stroke-width="7.83"/>
 <rect transform="matrix(.0158 -.9999 .9999 .0158 -332.19 2269.9)" x="902.77" y="1233.8" width="168.35" height="139.81" stroke="#000" stroke-width="7.83"/>
 <rect transform="matrix(.0123 -.9999 .9999 .0123 -137.64 2145.3)" x="1008.4" y="1132.6" width="17.598" height="19.533" stroke="#000" stroke-width="7.83"/>
 <rect transform="matrix(.0123 -.9999 .9999 .0123 -187.39 2091.3)" x="956.13" y="1130.7" width="17.598" height="19.533" stroke="#000" stroke-width="7.83"/>
 <path d="m149.9 937.84c1e-3 1e-3 -1e-3 -4e-3 0-2e-3 -0.03 0.011 0.011-3e-3 -9e-3 5e-3 2e-3 -1e-3 -1e-3 1e-3 0 0-3e-3 0-5e-3 0-1e-3 4e-3 0 0 4e-3 -3e-3 6e-3 -5e-3h-2e-3c0 2e-3 0 2e-3 6e-3 -2e-3z"/>
 <polygon points="149.9 937.84 149.9 937.84"/>
 <polygon points="149.9 937.84 149.9 937.84"/>
 <path d="m1183.7 116.97c-112.3-58.598-262.61-85.173-363.78-83.512-161.69 0.289-313.66 39.603-436.16 144.17-101.58 86.412-183.68 243.8-164.13 358.24 2.367 13.651 6.459 23.558 4.932 32.166-109.43 148.91-226.66 250.11-186.06 312.85 11.405 17.705 30.87 27.384 48.902 36.618 16.185 8.36 8.764 5.721 16.153 7.945 18.384 5.483 32.357 3.219 43.768 10.006 0.575 0.342 2.616 2.397 2.556 2.388-0.015-0.011 0.026 0.052 0.019 0.179 1.374 5.6-9.132 26.021-9.861 37.798-0.596 17.582-42.389 38.733-20.915 78.839 6.394 12.113 17.825 20.241 28.052 27.781-6.576 7.02-11.096 11.373-15.748 17.459-13.49 17.704-11.67 33.87-2.002 45.112 14.369 16.419 31.439 33.252 34.542 49.605 1.629 8.591 0.562 11.033-15.04 56.086-13.051 38.52-21.813 72.609-3.502 105.78 2.037 3.644 9.575 14.562 11.979 17.265 57.607 67.664 142.41 64.025 227.58 60.422 47.323-2.361 94.079-8.837 111.57 24.61 3.191 6.056 5.405 12.754 7.18 19.305 6.192 24.023 12.846 47.334 14.893 65.589 2.812 21.772-1.169 38.894 9.309 58.045 12.766 20.664 34.068 28.521 58.154 31.175 17.6 1.625 356.9-1.268 357.9-1.309 26.484-1.429 44.414-18.052 51.359-38.013 3.904-10.184 2.777-4.199 6.305-201.46l-32.635-0.584c-7e-3 0.396-3.283 184.17-3.32 184.56-1.243 13.791-10.406 21.607-21.27 22.811-11.598 0.223 55.947-0.257-327.64 2.203-23.584 0.152-43.692 0.505-58.189-12.466-6.892-5.955-5.648-24.01-6.555-38.138-2.111-31.311-18.515-87.008-19.445-89.782-27.941-84.859-112.21-56.332-213.8-57.46-59.583-0.843-112.48-12.722-144.73-62.45-18.489-28.617 7.278-78.956 19.562-120.67 12.445-41.793-13.117-66.303-39.051-95.929 5.345-13.277 44.817-35.051 21.79-60.135-7.838-8.381-34.162-20.727-30.246-34.408 3.121-10.785 22.478-24.428 26.036-47.581 0.733-5.845 0.184-3.354 0.768-5.675 3.987-15.043 20.533-43.403-1.894-63.6-15.071-12.947-27.834-13.536-45.794-16.138-8.516-1.207-12.378-2.492-12.378-2.492-3.258-1.94-8.172-4.472-10.555-5.704-33.614-17.214-44.201-24.399-36.742-49.186 14.029-47.441 77.756-111.81 166.18-227.13 4.478-5.548 10.963-12.344 16.294-19.841 16.683-23.722 7.208-41.665 3.748-61.97-22.258-127.8 114.52-463.38 563.14-464.23 465.4-0.919 764.33 336.9 579.13 815.3-32.976 85.214-117.87 154.51-150.15 268.32-11.279 41.132 0.52 140.98 5.839 185.81l32.395-3.99c-3.901-32.88-16.035-138.02-7.439-170.26 16.484-75.984 92.548-162.29 124.12-216.82 18.479-31.187 22.771-43.787 30.946-64.905 117.45-313.32 38.325-613.65-246.08-762.6z"/>
 <path d="m1232.3 1481.7s1.508 8.836 3.771 22.091c2.274 13.252 5.452 30.897 8.733 48.536 3.272 17.638 6.747 35.268 9.41 48.5 1.355 6.618 2.484 12.133 3.274 15.994 0.806 3.863 1.266 6.07 1.266 6.07l107.66-22.614s-0.442-2.118-1.215-5.826c-0.76-3.715-1.847-9.023-3.151-15.392-2.568-12.759-5.93-29.812-9.105-46.93-3.182-17.114-6.272-34.259-8.481-47.136-2.198-12.879-3.663-21.465-3.663-21.465l-108.5 18.172z" fill="#B2B2B2" stroke="#000" stroke-width="7.83"/>
 <path d="m1197.3 1346s0.336 2.683 0.923 7.379c0.573 4.703 1.448 11.392 2.511 19.413 2.133 16.038 5.13 37.346 8.357 58.569 3.21 21.228 6.665 42.379 9.328 58.23 1.352 7.922 2.478 14.523 3.266 19.144 0.8 4.619 1.257 7.258 1.257 7.258l137.71-24.127s-0.44-2.545-1.211-6.998c-0.76-4.455-1.846-10.819-3.149-18.457-2.566-15.279-5.9-35.669-8.98-56.057-3.101-20.388-5.964-40.759-7.994-56.011-1.007-7.625-1.842-13.978-2.381-18.413l-0.872-6.976-138.77 17.046z" stroke="#000" stroke-width="7.83"/>
 <polygon points="1321.8 1568.1 1325.2 1585.3 1344.3 1581.5 1341 1564.5" stroke="#000" stroke-width="7.83"/>
 <polygon points="1270.7 1579.1 1274.1 1596.6 1293.3 1592.8 1289.9 1575.5" stroke="#000" stroke-width="7.83"/>
 <path d="m1354.7 491.61c-2.712-2.978-2.758-3.069-4.755-9.978-6.455-22.265-22.131-52.933-41.771-64.695l-5.891-3.527c-1.229-14.304-1.295-39.072-24.738-69.377-13.039-16.852-32.272-32.417-50.256-42.028-2.076-8.546-6.585-19.64-22.631-34.872-8.516-8.091-39.808-72.355-158.52-96.113-16.401-3.28-38.6-23.237-110.64-21.367-40.22-21.604-79.963-23.077-123.82-12.562-41.37-6.355-76.318-3.493-114.27 10.958-72.063-7.039-128.11 13.39-169.18 52.143-60.857-8.096-114.89 82.05-143.37 98.77-23.681 13.945-40.547 43.388-49.687 70.706-3.493 10.45-4.284 7.965-11.462 22.228-20.242 40.371-1.347 56.168-1.347 57.888 0 2.132-33.361 42.292 28.861 108.36 9.727 47.246 39.617 90.814 147.7 110.72 3.588 11.447 7.42 14.986 18.05 25.893 0.909 7.932 1.131 11.172 2.73 15.008 1.264 3.051 1.338 3.518 0.898 5.58-6.589 30.379 39.096 49.854 49.184 58.227 70.839 58.625 132.68 47.468 154.21 49.605 13.707 1.347 42.578-2.043 75.223-8.851 8.966-1.86 8.428-2.03 9.565 1.035 14.764 39.773 50.85 62.382 52.757 65.584 19.863 32.731 57.168 98.32 63.101 114.95 7.784 21.712 22.714 43.839 44.685 49.596 8.345 2.2 16.443-0.305 21.137-0.889 32.727-4.02-12.589-77.326-8.906-86.877 0.364-0.947 4.715 0.907 23.428 4.829 23.018 4.843 33.319 0.936 56.916 4.251 19.131 2.685 32.536 1.374 67.215-6.56 28.092-6.432 44.822-12.882 62.716-24.189 22.915-14.477 40.314-36.521 42.028-53.27 0.302-2.932 0.33-2.969 3.757-6.469 6.203-6.331 8.402-11.453 10.454-24.253 1.426-8.931 0.997-3.528-2.776-23.181 32.713-0.028 67.131-2.007 98.266-34.295 31.54-32.648 42.259-82.731 44.172-128.06 0.402-9.5 3.414-134.88-33.02-174.92z"/>
 <g fill="#fff">
  <path d="m559.85 670.08h18.402c2.919 0 5.003 2.829 4.136 5.617l-7.396 23.796 12.479 0.121c3.272 0.032 5.062 3.826 3.005 6.371l-31.76 39.302c-1.698 2.101-5.035 0.239-4.139-2.309l9.385-26.691-9.813-0.209c-2.261-0.048-4-2.015-3.768-4.265 0.867-8.423 2.82-27.421 3.724-36.53 0.293-2.954 2.777-5.203 5.745-5.203z"/>
  <path d="m950.27 961.92h10.357c1.643 0 2.816 1.592 2.328 3.161l-4.163 13.393 7.023 0.068c1.841 0.018 2.849 2.154 1.691 3.586l-17.876 22.12c-0.955 1.182-2.834 0.134-2.33-1.3l5.282-15.023-5.523-0.117c-1.273-0.027-2.251-1.134-2.121-2.401 0.488-4.741 1.587-15.434 2.096-20.56 0.167-1.661 1.566-2.927 3.236-2.927z"/>
  <path d="m1109.9 439.48h23.141c3.671 0 6.291 3.558 5.202 7.064l-9.301 29.925 15.693 0.152c4.115 0.04 6.365 4.812 3.779 8.012l-39.94 49.425c-2.135 2.642-6.332 0.3-5.205-2.904l11.802-33.566-12.34-0.263c-2.844-0.061-5.03-2.535-4.738-5.364 1.091-10.593 3.546-34.484 4.683-45.939 0.368-3.713 3.492-6.542 7.224-6.542z"/>
  <path d="m1233.8 738.19h24.828c3.939 0 6.75 3.817 5.581 7.579l-9.979 32.107 16.837 0.163c4.414 0.043 6.83 5.163 4.055 8.596l-42.853 53.029c-2.291 2.834-6.794 0.322-5.585-3.116l12.663-36.013-13.24-0.282c-3.051-0.065-5.396-2.719-5.084-5.755 1.17-11.365 3.805-36.998 5.025-49.289 0.396-3.984 3.748-7.019 7.752-7.019z"/>
  <path d="m1231.9 458.45h36.341c5.765 0 9.88 5.587 8.169 11.093l-14.607 46.996 24.645 0.238c6.461 0.062 9.996 7.557 5.935 12.583l-62.723 77.618c-3.353 4.149-9.944 0.471-8.175-4.561l18.535-52.713-19.379-0.412c-4.466-0.095-7.899-3.98-7.441-8.423 1.713-16.635 5.569-54.154 7.355-72.144 0.579-5.832 5.485-10.275 11.345-10.275z"/>
  <path d="m579.12 205.55h34.487c5.471 0 9.376 5.302 7.752 10.527l-13.862 44.598 23.387 0.226c6.132 0.059 9.486 7.171 5.632 11.941l-59.523 73.658c-3.182 3.937-9.437 0.447-7.758-4.328l17.589-50.023-18.391-0.391c-4.238-0.09-7.496-3.777-7.062-7.994 1.626-15.787 5.285-51.392 6.98-68.463 0.552-5.535 5.208-9.751 10.769-9.751z"/>
  <path d="m538.3 400.89h30.437c4.829 0 8.275 4.68 6.841 9.291l-12.233 39.36 20.64 0.199c5.412 0.052 8.372 6.329 4.971 10.538l-52.532 65.007c-2.808 3.475-8.328 0.395-6.846-3.82l15.523-44.148-16.231-0.345c-3.74-0.08-6.615-3.334-6.232-7.055 1.435-13.932 4.664-45.356 6.16-60.422 0.485-4.884 4.594-8.605 9.502-8.605z"/>
  <path d="m1324.7 726.5h10.255c1.627 0 2.788 1.577 2.305 3.13l-4.122 13.261 6.954 0.067c1.823 0.018 2.821 2.132 1.675 3.55l-17.698 21.901c-0.946 1.171-2.806 0.133-2.307-1.287l5.23-14.874-5.468-0.116c-1.26-0.027-2.229-1.123-2.1-2.377 0.483-4.694 1.571-15.281 2.075-20.357 0.163-1.645 1.547-2.898 3.201-2.898z"/>
  <path d="m1049.5 233.46h34.478c5.47 0 9.373 5.301 7.75 10.524l-13.858 44.586 23.381 0.226c6.13 0.059 9.484 7.169 5.631 11.938l-59.507 73.639c-3.181 3.936-9.434 0.447-7.755-4.327l17.585-50.01-18.386-0.391c-4.237-0.09-7.494-3.776-7.06-7.992 1.625-15.782 5.283-51.378 6.978-68.445 0.548-5.533 5.203-9.748 10.763-9.748z"/>
  <path d="m829.3 747.53h16.263c2.58 0 4.421 2.5 3.656 4.964l-6.537 21.031 11.029 0.107c2.892 0.028 4.474 3.382 2.656 5.631l-28.069 34.735c-1.5 1.857-4.45 0.211-3.658-2.041l8.295-23.59-8.672-0.185c-1.998-0.043-3.535-1.781-3.33-3.77 0.767-7.445 2.492-24.235 3.291-32.285 0.258-2.609 2.453-4.597 5.076-4.597z"/>
  <path d="m484.91 566.49h19.383c3.075 0 5.27 2.98 4.357 5.917l-7.791 25.066 13.145 0.127c3.446 0.033 5.332 4.03 3.166 6.711l-33.454 41.399c-1.788 2.213-5.304 0.251-4.36-2.432l9.886-28.115-10.336-0.22c-2.382-0.051-4.213-2.123-3.969-4.493 0.914-8.873 2.97-28.884 3.923-38.479 0.307-3.112 2.924-5.481 6.05-5.481z"/>
  <path d="m1154.5 806.47h10.591c1.68 0 2.879 1.628 2.38 3.233l-4.257 13.696 7.182 0.069c1.883 0.018 2.913 2.202 1.73 3.667l-18.279 22.62c-0.977 1.209-2.898 0.137-2.382-1.329l5.401-15.362-5.648-0.12c-1.301-0.028-2.302-1.16-2.169-2.455 0.499-4.848 1.623-15.782 2.143-21.025 0.17-1.699 1.6-2.994 3.308-2.994z"/>
  <path d="m1329.6 533.32h12.689c2.013 0 3.45 1.951 2.852 3.873l-5.1 16.41 8.605 0.083c2.256 0.022 3.49 2.639 2.072 4.393l-21.901 27.102c-1.171 1.449-3.472 0.165-2.854-1.592l6.472-18.406-6.767-0.144c-1.559-0.033-2.758-1.39-2.598-2.941 0.598-5.809 1.945-18.909 2.568-25.191 0.202-2.036 1.915-3.587 3.962-3.587z"/>
  <path d="m1071.1 764.72h22.408c3.555 0 6.092 3.445 5.037 6.84l-9.007 28.978 15.196 0.147c3.984 0.039 6.164 4.659 3.66 7.758l-38.676 47.86c-2.067 2.558-6.131 0.291-5.041-2.812l11.429-32.503-11.949-0.254c-2.753-0.059-4.87-2.454-4.588-5.194 1.056-10.257 3.434-33.392 4.535-44.484 0.357-3.597 3.382-6.336 6.996-6.336z"/>
  <path d="m921.22 368.61h36.623c5.81 0 9.956 5.631 8.232 11.179l-14.72 47.36 24.835 0.24c6.512 0.063 10.074 7.615 5.981 12.68l-63.209 78.219c-3.379 4.181-10.021 0.475-8.238-4.596l18.678-53.121-19.529-0.416c-4.5-0.096-7.96-4.011-7.499-8.489 1.726-16.764 5.612-54.574 7.412-72.703 0.584-5.876 5.528-10.353 11.434-10.353z"/>
  <path d="m698.8 188.62h12.999c2.062 0 3.534 1.999 2.922 3.968l-5.225 16.81 8.815 0.085c2.311 0.022 3.576 2.703 2.123 4.501l-22.436 27.764c-1.199 1.484-3.557 0.169-2.924-1.631l6.63-18.855-6.932-0.148c-1.597-0.034-2.825-1.424-2.662-3.013 0.613-5.95 1.992-19.371 2.631-25.806 0.208-2.086 1.963-3.675 4.059-3.675z"/>
  <path d="m732.64 721.46h18.766c2.977 0 5.102 2.885 4.218 5.728l-7.543 24.268 12.726 0.123c3.337 0.032 5.162 3.902 3.065 6.498l-32.39 40.081c-1.731 2.142-5.135 0.243-4.221-2.355l9.571-27.22-10.007-0.213c-2.306-0.049-4.079-2.055-3.843-4.35 0.885-8.59 2.876-27.965 3.798-37.254 0.301-3.012 2.834-5.306 5.86-5.306z"/>
  <path d="m645.71 725.54h13.118c2.081 0 3.566 2.017 2.949 4.004l-5.273 16.964 8.896 0.086c2.332 0.023 3.608 2.728 2.142 4.542l-22.641 28.018c-1.21 1.498-3.59 0.17-2.951-1.646l6.691-19.028-6.995-0.149c-1.612-0.034-2.851-1.437-2.686-3.041 0.618-6.005 2.01-19.548 2.655-26.042 0.209-2.105 1.98-3.708 4.095-3.708z"/>
  <path d="m1341.8 632.37h11.991c1.902 0 3.26 1.844 2.695 3.66l-4.819 15.506 8.131 0.079c2.132 0.021 3.298 2.493 1.958 4.152l-20.695 25.61c-1.106 1.369-3.281 0.156-2.697-1.505l6.115-17.392-6.394-0.136c-1.473-0.031-2.606-1.313-2.455-2.779 0.565-5.489 1.838-17.868 2.427-23.804 0.19-1.925 1.809-3.391 3.743-3.391z"/>
  <path d="m977.41 772.29h10.147c1.61 0 2.759 1.56 2.281 3.097l-4.078 13.122 6.881 0.066c1.804 0.017 2.791 2.11 1.657 3.513l-17.513 21.672c-0.936 1.158-2.776 0.132-2.282-1.273l5.175-14.718-5.411-0.115c-1.247-0.027-2.205-1.111-2.078-2.352 0.478-4.645 1.555-15.12 2.054-20.143 0.161-1.628 1.531-2.869 3.167-2.869z"/>
  <path d="m353.32 440.69h10.662c1.691 0 2.899 1.639 2.397 3.254l-4.285 13.788 7.23 0.07c1.896 0.018 2.933 2.217 1.741 3.692l-18.402 22.772c-0.984 1.217-2.917 0.138-2.398-1.338l5.438-15.465-5.686-0.121c-1.31-0.028-2.317-1.168-2.183-2.471 0.503-4.881 1.634-15.888 2.158-21.166 0.17-1.712 1.609-3.015 3.328-3.015z"/>
  <path d="m814.89 638.63h12.918c2.049 0 3.512 1.986 2.904 3.943l-5.192 16.706 8.761 0.085c2.297 0.022 3.553 2.686 2.11 4.473l-22.297 27.591c-1.192 1.475-3.535 0.168-2.906-1.621l6.589-18.738-6.889-0.147c-1.587-0.034-2.808-1.415-2.645-2.994 0.609-5.913 1.98-19.251 2.615-25.645 0.204-2.074 1.948-3.653 4.032-3.653z"/>
  <path d="m1224.4 351.58h19.829c3.146 0 5.391 3.049 4.457 6.053l-7.97 25.642 13.447 0.13c3.526 0.034 5.454 4.123 3.238 6.865l-34.223 42.35c-1.829 2.264-5.426 0.257-4.46-2.488l10.113-28.761-10.574-0.225c-2.437-0.052-4.31-2.172-4.06-4.596 0.935-9.077 3.038-29.548 4.013-39.363 0.316-3.183 2.993-5.607 6.19-5.607z"/>
  <path d="m1157.1 660.81h23.032c3.654 0 6.261 3.541 5.177 7.03l-9.257 29.784 15.619 0.151c4.095 0.04 6.335 4.789 3.761 7.974l-39.751 49.191c-2.125 2.629-6.302 0.299-5.181-2.89l11.747-33.407-12.282-0.261c-2.83-0.06-5.006-2.523-4.716-5.338 1.086-10.543 3.529-34.321 4.661-45.722 0.367-3.696 3.476-6.512 7.19-6.512z"/>
  <path d="m656.33 337.18h10.671c1.693 0 2.901 1.641 2.398 3.257l-4.289 13.799 7.236 0.07c1.897 0.018 2.935 2.219 1.743 3.694l-18.417 22.79c-0.984 1.218-2.92 0.138-2.4-1.339l5.442-15.478-5.69-0.121c-1.311-0.028-2.319-1.169-2.185-2.473 0.503-4.884 1.635-15.901 2.16-21.183 0.17-1.712 1.61-3.016 3.331-3.016z"/>
  <path d="m605.23 565.66h21.721c3.446 0 5.905 3.34 4.882 6.63l-8.73 28.089 14.73 0.142c3.862 0.037 5.975 4.517 3.547 7.521l-37.489 46.392c-2.004 2.48-5.943 0.282-4.886-2.726l11.078-31.506-11.583-0.246c-2.669-0.057-4.721-2.379-4.448-5.035 1.024-9.943 3.329-32.368 4.396-43.12 0.347-3.486 3.279-6.141 6.782-6.141z"/>
  <path d="m1174.1 879.79h10.455c1.659 0 2.842 1.607 2.35 3.191l-4.202 13.52 7.09 0.068c1.859 0.018 2.876 2.174 1.707 3.62l-18.044 22.329c-0.964 1.194-2.861 0.136-2.352-1.312l5.332-15.165-5.575-0.119c-1.285-0.027-2.272-1.145-2.141-2.423 0.493-4.786 1.602-15.579 2.116-20.755 0.166-1.676 1.578-2.954 3.264-2.954z"/>
  <path d="m803.37 160.48h33.978c5.39 0 9.237 5.224 7.637 10.371l-13.657 43.939 23.042 0.223c6.041 0.058 9.346 7.065 5.549 11.764l-58.643 72.569c-3.134 3.879-9.297 0.441-7.643-4.264l17.329-49.284-18.119-0.386c-4.175-0.089-7.385-3.721-6.957-7.876 1.602-15.553 5.207-50.632 6.877-67.451 0.541-5.452 5.128-9.605 10.607-9.605z"/>
  <path d="m1126.7 567.79h15.477c2.455 0 4.208 2.38 3.479 4.724l-6.221 20.015 10.496 0.101c2.752 0.027 4.257 3.218 2.528 5.359l-26.713 33.056c-1.428 1.767-4.235 0.201-3.481-1.942l7.894-22.449-8.253-0.176c-1.902-0.04-3.364-1.695-3.169-3.587 0.73-7.085 2.372-23.063 3.132-30.725 0.246-2.484 2.336-4.376 4.831-4.376z"/>
  <path d="m1000.5 861.83h20.236c3.21 0 5.501 3.111 4.549 6.177l-8.133 26.168 13.723 0.133c3.598 0.035 5.566 4.208 3.305 7.006l-34.926 43.22c-1.867 2.31-5.537 0.262-4.552-2.539l10.321-29.352-10.791-0.23c-2.487-0.053-4.398-2.216-4.143-4.69 0.954-9.263 3.101-30.154 4.095-40.171 0.321-3.248 3.053-5.722 6.316-5.722z"/>
  <path d="m406.05 335.26h15.625c2.479 0 4.248 2.402 3.512 4.769l-6.28 20.205 10.596 0.102c2.778 0.027 4.298 3.249 2.552 5.41l-26.967 33.371c-1.441 1.784-4.275 0.203-3.515-1.961l7.969-22.663-8.332-0.177c-1.92-0.041-3.396-1.711-3.199-3.622 0.737-7.152 2.394-23.283 3.162-31.017 0.248-2.507 2.357-4.417 4.877-4.417z"/>
  <path d="m1093.9 897.94h11.594c1.839 0 3.152 1.782 2.606 3.539l-4.66 14.992 7.862 0.076c2.061 0.02 3.189 2.411 1.893 4.014l-20.01 24.761c-1.069 1.323-3.172 0.15-2.608-1.455l5.913-16.816-6.182-0.132c-1.425-0.03-2.52-1.27-2.374-2.687 0.547-5.307 1.776-17.276 2.346-23.015 0.186-1.86 1.751-3.277 3.62-3.277z"/>
  <path d="m713.17 615.73h11.813c1.874 0 3.212 1.816 2.655 3.606l-4.748 15.277 8.011 0.077c2.1 0.02 3.249 2.456 1.929 4.09l-20.389 25.231c-1.09 1.349-3.232 0.153-2.657-1.483l6.025-17.135-6.299-0.134c-1.452-0.031-2.568-1.294-2.419-2.738 0.557-5.408 1.81-17.604 2.391-23.451 0.189-1.896 1.783-3.34 3.688-3.34z"/>
  <path d="m1035.4 635.24h25.652c4.07 0 6.974 3.944 5.766 7.83l-10.31 33.172 17.396 0.168c4.561 0.044 7.056 5.334 4.189 8.882l-44.274 54.788c-2.366 2.928-7.019 0.333-5.77-3.219l13.083-37.208-13.679-0.291c-3.152-0.067-5.576-2.81-5.253-5.946 1.209-11.742 3.931-38.226 5.192-50.923 0.408-4.117 3.871-7.253 8.008-7.253z"/>
  <path d="m903.22 833.39h16.382c2.599 0 4.454 2.519 3.682 5.001l-6.584 21.185 11.109 0.107c2.913 0.028 4.506 3.406 2.675 5.672l-28.275 34.989c-1.511 1.87-4.483 0.213-3.685-2.056l8.355-23.762-8.736-0.186c-2.013-0.043-3.561-1.794-3.354-3.797 0.772-7.499 2.51-24.412 3.315-32.521 0.263-2.629 2.475-4.632 5.116-4.632z"/>
  <path d="m671.35 434.14h30.525c4.843 0 8.299 4.693 6.861 9.318l-12.269 39.474 20.7 0.2c5.427 0.052 8.397 6.347 4.985 10.569l-52.685 65.196c-2.816 3.485-8.352 0.396-6.866-3.831l15.569-44.277-16.278-0.346c-3.751-0.08-6.635-3.343-6.25-7.075 1.439-13.973 4.678-45.488 6.178-60.598 0.487-4.899 4.608-8.63 9.53-8.63z"/>
  <path d="m871.58 562.82h12.698c2.014 0 3.452 1.952 2.854 3.876l-5.104 16.421 8.611 0.083c2.258 0.022 3.493 2.64 2.074 4.396l-21.916 27.12c-1.171 1.45-3.474 0.165-2.856-1.594l6.476-18.418-6.771-0.144c-1.56-0.033-2.76-1.391-2.6-2.943 0.599-5.813 1.946-18.922 2.57-25.208 0.202-2.037 1.916-3.589 3.964-3.589z"/>
  <path d="m1013.2 463.62h26.914c4.27 0 7.317 4.138 6.049 8.215l-10.817 34.804 18.251 0.176c4.785 0.046 7.403 5.596 4.395 9.318l-46.451 57.482c-2.483 3.072-7.364 0.349-6.054-3.378l13.727-39.038-14.352-0.305c-3.307-0.07-5.85-2.948-5.511-6.238 1.269-12.32 4.124-40.105 5.447-53.428 0.428-4.318 4.062-7.608 8.402-7.608z"/>
  <path d="m396.77 543.36h11.621c1.844 0 3.159 1.787 2.612 3.547l-4.671 15.028 7.881 0.076c2.066 0.02 3.197 2.416 1.898 4.024l-20.057 24.82c-1.072 1.327-3.18 0.151-2.614-1.458l5.927-16.856-6.197-0.132c-1.428-0.03-2.526-1.273-2.38-2.694 0.548-5.32 1.781-17.317 2.352-23.07 0.185-1.864 1.754-3.285 3.628-3.285z"/>
  <path d="m786.45 451.63h31.191c4.948 0 8.48 4.796 7.011 9.521l-12.537 40.336 21.152 0.204c5.546 0.054 8.58 6.486 5.094 10.8l-53.835 66.619c-2.877 3.561-8.535 0.405-7.016-3.914l15.908-45.243-16.633-0.354c-3.833-0.082-6.78-3.416-6.387-7.23 1.47-14.278 4.78-46.48 6.313-61.92 0.499-5.006 4.709-8.819 9.739-8.819z"/>
  <path d="m1262.8 640.33h11.364c1.803 0 3.089 1.747 2.554 3.469l-4.567 14.695 7.706 0.074c2.02 0.02 3.126 2.363 1.856 3.934l-19.613 24.27c-1.048 1.297-3.109 0.147-2.556-1.426l5.796-16.483-6.06-0.129c-1.396-0.03-2.47-1.245-2.327-2.634 0.536-5.202 1.741-16.933 2.3-22.558 0.181-1.823 1.715-3.212 3.547-3.212z"/>
  <path d="m938.95 186.54h28.834c4.574 0 7.839 4.433 6.481 8.801l-11.589 37.287 19.553 0.189c5.127 0.05 7.931 5.996 4.709 9.983l-49.765 61.583c-2.66 3.292-7.89 0.374-6.486-3.618l14.706-41.823-15.376-0.327c-3.543-0.075-6.267-3.158-5.904-6.683 1.359-13.199 4.418-42.967 5.836-57.24 0.459-4.627 4.351-8.152 9.001-8.152z"/>
  <path d="m448 451.74h11.259c1.786 0 3.061 1.731 2.531 3.437l-4.525 14.559 7.635 0.074c2.002 0.019 3.097 2.341 1.839 3.898l-19.432 24.046c-1.039 1.285-3.081 0.146-2.532-1.413l5.742-16.33-6.004-0.128c-1.383-0.029-2.447-1.233-2.305-2.61 0.531-5.154 1.725-16.777 2.279-22.35 0.178-1.807 1.698-3.183 3.513-3.183z"/>
  <path d="m908.07 702.45h14.572c2.312 0 3.961 2.24 3.275 4.448l-5.857 18.844 9.882 0.096c2.591 0.025 4.008 3.03 2.38 5.045l-25.15 31.122c-1.344 1.664-3.987 0.189-3.278-1.829l7.432-21.136-7.771-0.165c-1.791-0.038-3.167-1.596-2.984-3.378 0.687-6.67 2.233-21.714 2.949-28.927 0.233-2.339 2.201-4.12 4.55-4.12z"/>
  <path d="m944.72 584.17h22.456c3.563 0 6.105 3.453 5.048 6.855l-9.026 29.039 15.228 0.147c3.993 0.039 6.177 4.669 3.667 7.775l-38.758 47.961c-2.072 2.564-6.145 0.291-5.051-2.818l11.453-32.572-11.975-0.255c-2.759-0.059-4.881-2.459-4.598-5.205 1.059-10.279 3.441-33.463 4.545-44.579 0.358-3.603 3.389-6.348 7.011-6.348z"/>
  <path d="m838.88 316.83h20.765c3.294 0 5.645 3.193 4.667 6.338l-8.346 26.853 14.082 0.136c3.692 0.036 5.712 4.318 3.391 7.19l-35.839 44.35c-1.916 2.37-5.682 0.269-4.671-2.606l10.591-30.119-11.073-0.236c-2.552-0.054-4.513-2.274-4.252-4.813 0.979-9.505 3.182-30.943 4.203-41.222 0.33-3.333 3.133-5.871 6.482-5.871z"/>
  <path d="m1148.5 294.25h21.605c3.428 0 5.874 3.322 4.856 6.595l-8.684 27.939 14.651 0.142c3.841 0.037 5.943 4.493 3.528 7.48l-37.289 46.145c-1.993 2.466-5.912 0.28-4.86-2.711l11.019-31.338-11.521-0.245c-2.655-0.056-4.696-2.366-4.424-5.008 1.018-9.89 3.311-32.195 4.373-42.89 0.345-3.468 3.262-6.109 6.746-6.109z"/>
  <path d="m481.91 263.95h12.294c1.95 0 3.342 1.89 2.763 3.753l-4.941 15.899 8.337 0.081c2.186 0.021 3.382 2.556 2.008 4.257l-21.219 26.258c-1.134 1.403-3.364 0.159-2.765-1.543l6.27-17.833-6.556-0.139c-1.511-0.032-2.672-1.347-2.517-2.85 0.58-5.628 1.884-18.32 2.488-24.406 0.195-1.974 1.855-3.477 3.838-3.477z"/>
  <path d="m738.73 324.17h12.47c1.978 0 3.39 1.917 2.803 3.806l-5.012 16.126 8.456 0.082c2.217 0.021 3.43 2.593 2.036 4.317l-21.522 26.633c-1.15 1.424-3.412 0.162-2.805-1.565l6.36-18.087-6.65-0.142c-1.532-0.033-2.71-1.366-2.553-2.89 0.588-5.708 1.911-18.582 2.524-24.755 0.199-2 1.882-3.525 3.893-3.525z"/>
 </g>
</svg>
